<svg xmlns="http://www.w3.org/2000/svg" width="226" height="226" fill="none" viewBox="0 0 226 226">
    <rect width="226" height="226" fill="#6521cf" rx="50" />
    <g>
        <path fill="#fff"
            d="M171.611 77.883c-1.65 1.847-3.991 2.053-6.181 2.463-11.887 2.213-23.941 2.604-35.978 3.04-1.847.065-1.989.745-1.987 2.219.035 14.612-.031 29.227.068 43.84.015 2.136-.574 2.681-2.662 2.657a1114 1114 0 0 0-27.787.004c-2.042.026-2.543-.561-2.536-2.531.067-18.267.04-36.535.03-54.8 0-1.016-.098-2.03-.15-3.044-.788-.914-.78-2.037-.784-3.142-.02-4.76-.052-9.521.008-14.28.045-3.54 1.118-4.634 4.707-4.237 5.945.661 11.902.552 17.833.35 14.595-.496 29.222-.595 43.732-2.57 3.288-.446 6.543-1.04 9.708-2.09 1.095-.364 2.185-.582 2.16 1.29-.136 10.274.185 20.555-.181 30.831" />
        <path fill="#706383"
            d="M171.611 77.883V45.94c-9.085 3.288-18.294 3.583-27.387 4.213-13.899.965-27.841 1.19-41.78.95-1.867-.034-3.739-.073-5.599-.242-1.756-.158-2.355.447-2.336 2.27.065 6.2-.041 12.399-.082 18.6-12.378.55-24.767.94-37.016 3.04-4.373.75-4.367.77-4.367-3.614.002-8.59.06-17.18-.043-25.768-.02-1.738.646-2.42 2.176-2.713 7.596-1.444 15.272-2.153 22.98-2.643a523 523 0 0 1 47.166-.84c11.969.318 23.934.855 35.817 2.44 2.674.356 5.328.964 7.937 1.66 1.589.425 2.965 1.283 2.959 3.328-.029 10.036-.017 20.071-.044 30.107 0 .38-.247.768-.38 1.155z" />
        <path fill="#fff"
            d="M94.492 95.31v89.289q0 .88.591 1.465.59.588 1.377.587 12.888 0 21.939-9.237t9.052-22.334V94.695c-10.979.783-21.962 1.174-32.96.614Z" />
    </g>
</svg>