<svg xmlns="http://www.w3.org/2000/svg" width="48" height="48" fill="none" viewBox="0 0 48 48">
    <g>
        <path fill="#fff" fill-rule="evenodd"
            d="M14.47 37.323c.951.502 2.01.763 3.084.763 3.58 0 6.502-2.847 6.634-6.396L24.2 0h7.907c0 .673.063 1.345.187 2.006h-5.79v.001h7.909a10.95 10.95 0 0 0 2.706 7.212 10.93 10.93 0 0 0 5.99 1.782v1.761c.744.16 1.514.245 2.305.245v7.908a18.8 18.8 0 0 1-11.001-3.537v16.069C34.413 41.47 27.883 48 19.859 48a14.5 14.5 0 0 1-10.642-4.642l-.003-.002C5.46 40.721 3 36.363 3 31.44c0-8.025 6.53-14.555 14.554-14.555q.986.004 1.962.143V25.1v-6.2q.067 0 .136-.004.103-.004.207-.005.985.005 1.96.143v8.073a6.5 6.5 0 0 0-1.96-.308 6.655 6.655 0 0 0-6.647 6.648 6.6 6.6 0 0 0 1.259 3.876Zm8.487 2.002a6.66 6.66 0 0 0 3.536-5.63v.001a6.66 6.66 0 0 1-3.536 5.629m9.151-7.886V15.37z"
            clip-rule="evenodd" />
    </g>
</svg>