<svg xmlns="http://www.w3.org/2000/svg" width="30" height="30" fill="none" viewBox="0 0 30 30">
    <g clip-path="url(#a)">
        <path fill="#666"
            d="M15 30.017c8.284 0 15-6.716 15-15 0-8.285-6.716-15-15-15s-15 6.715-15 15 6.716 15 15 15" />
        <path fill="#141414"
            d="M0 45c8.284 0 15-6.716 15-15S8.284 15 0 15s-15 6.716-15 15 6.716 15 15 15m30 0c8.284 0 15-6.716 15-15s-6.716-15-15-15-15 6.716-15 15 6.716 15 15 15M0 15c8.284 0 15-6.716 15-15S8.284-15 0-15-15-8.284-15 0s6.716 15 15 15m30 0c8.284 0 15-6.716 15-15s-6.716-15-15-15S15-8.284 15 0s6.716 15 15 15" />
    </g>
</svg>