<svg xmlns="http://www.w3.org/2000/svg" width="100" height="40" fill="none" viewBox="0 0 374 148">
    <g>
        <path fill="#fff"
            d="M118.611 38.883c-1.65 1.847-3.991 2.053-6.181 2.463-11.887 2.214-23.941 2.604-35.978 3.04-1.847.065-1.989.744-1.987 2.219.035 14.612-.03 29.227.068 43.84.015 2.136-.574 2.681-2.662 2.657a1114 1114 0 0 0-27.787.004c-2.042.026-2.543-.56-2.536-2.531.067-18.267.04-36.535.03-54.8 0-1.016-.098-2.03-.15-3.044-.788-.914-.78-2.037-.784-3.142-.02-4.76-.052-9.521.008-14.28.045-3.54 1.118-4.634 4.707-4.237 5.945.661 11.902.552 17.833.35 14.595-.496 29.222-.595 43.732-2.57 3.288-.446 6.543-1.04 9.708-2.09 1.095-.364 2.185-.582 2.16 1.29-.136 10.274.185 20.555-.181 30.831" />
        <path fill="#756f7d"
            d="M118.611 38.883V6.94c-9.085 3.288-18.294 3.583-27.387 4.212-13.899.966-27.84 1.191-41.78.95-1.867-.033-3.739-.072-5.599-.24-1.756-.16-2.355.446-2.336 2.268.065 6.2-.041 12.4-.083 18.602-12.377.55-24.766.938-37.015 3.039-4.373.75-4.368.77-4.368-3.614.003-8.59.061-17.18-.042-25.768-.02-1.738.646-2.42 2.176-2.712 7.596-1.445 15.272-2.154 22.98-2.644a523 523 0 0 1 47.166-.84c11.969.318 23.934.855 35.817 2.44 2.674.356 5.328.965 7.937 1.66 1.589.425 2.965 1.283 2.959 3.328-.029 10.036-.017 20.071-.044 30.107 0 .38-.247.768-.38 1.155z" />
        <path fill="#fff"
            d="M41.492 56.31v89.289q0 .88.591 1.465.59.588 1.377.587 12.888 0 21.94-9.237 9.05-9.236 9.051-22.334V55.695c-10.979.783-21.962 1.174-32.96.614Zm73.703 89.672q-12.574 0-19.02-7.64t-6.446-21.963V64.65q9.867 0 16.83 7.28 6.963 7.284 6.963 17.628v26.977q0 10.267 9.55 10.267 8.198 0 11.619-6.128V64.65q9.948 0 16.95 7.322t7.003 17.666v31.594q-.001 9.631-6.525 16.472-6.526 6.844-15.758 6.844l-.716-8.675q-7.559 10.11-20.45 10.109m114.574-10.425q-8.039 10.425-22.76 10.425-12.097 0-19.497-9.55l-1.034 8.116q-9.153 0-15.677-6.485-6.527-6.485-6.525-15.639V31.862q10.264 0 17.508 7.241 7.24 7.243 7.241 17.509v14.96q6.924-7.878 17.906-7.878 14.802.001 22.84 10.665 8.118 10.584 8.117 29.921v1.272q-.003 19.501-8.119 30.005m-19.736-47.908c-2.069-3.234-5.201-4.855-9.391-4.855q-8.355 0-11.619 6.367v31.513q3.182 6.288 11.778 6.286 8.754.001 11.061-8.516 1.194-4.216 1.194-14.483 0-11.458-3.023-16.312m34.355-51.968q3.74-3.422 9.55-3.422 5.89 0 9.55 3.423 3.66 3.42 3.661 8.833-.001 5.415-3.661 8.833-3.66 3.422-9.55 3.422-5.81 0-9.55-3.422-3.66-3.421-3.661-8.833.002-5.41 3.661-8.834m-2.228 110.22V90.513q.001-10.425 7.003-17.785 7.002-7.362 16.872-7.362v55.388q-.001 10.427-7.003 17.786-7.005 7.362-16.872 7.361m53.696-70.429q7.879-10.822 21.805-10.822 11.936 0 17.826 7.4 5.969 7.48 6.128 22.442v30.638c0 5.784-1.949 10.702-5.849 14.763q-5.85 6.089-14.047 6.089h-3.98V95.527q0-6.047-2.308-8.833-2.31-2.864-8.514-2.864-7.004 0-10.347 5.73v35.255q0 8.754-5.928 14.96-5.931 6.209-14.363 6.209h-3.503V89.402q0-9.628 6.525-16.473 6.524-6.844 15.758-6.844zm55.048-39.79q3.74-3.423 9.55-3.423 5.889 0 9.549 3.423 3.661 3.42 3.661 8.833 0 5.415-3.661 8.833-3.66 3.422-9.549 3.422-5.81 0-9.55-3.422-3.66-3.421-3.661-8.833-.001-5.411 3.661-8.834ZM348.676 145.9V90.513q0-10.425 7.003-17.785 7-7.36 16.872-7.362v55.388q0 10.427-7.004 17.786-7.005 7.362-16.871 7.361Z" />
    </g>
</svg>